<?xml version="1.0" standalone="no"?>
<!DOCTYPE svg PUBLIC "-//W3C//DTD SVG 20010904//EN"
 "http://www.w3.org/TR/2001/REC-SVG-20010904/DTD/svg10.dtd">
<svg version="1.0" xmlns="http://www.w3.org/2000/svg"
 width="136.000000pt" height="136.000000pt" viewBox="0 0 136.000000 136.000000"
 preserveAspectRatio="xMidYMid meet">
<metadata>
Created by potrace 1.14, written by Peter Selinger 2001-2017
</metadata>
<g transform="translate(0.000000,136.000000) scale(0.100000,-0.100000)"
fill="#000000" stroke="none">
<path d="M400 1342 c-54 -27 -73 -70 -75 -168 l-1 -84 48 0 c26 0 212 0 413 0
201 0 383 0 405 0 l40 0 0 135 0 135 -397 0 c-359 0 -401 -2 -433 -18z"/>
<path d="M201 804 c-92 -39 -105 -169 -24 -231 l36 -27 361 -1 361 0 0 135 0
135 -353 1 c-250 0 -361 -3 -381 -12z"/>
<path d="M327 265 c-2 -5 -3 -44 -2 -85 2 -85 19 -127 62 -156 26 -18 52 -19
433 -19 l405 0 3 133 c2 121 1 132 -15 133 -155 6 -884 2 -886 -6z"/>
</g>
</svg>
